<svg width="100%" viewBox="0 0 680 230" role="img" xmlns="http://www.w3.org/2000/svg">
<style>
  .c-gray rect{fill:#f1efe8;stroke:#5f5e5a}
  .c-purple rect{fill:#eeedfe;stroke:#534ab7}
  .c-teal rect{fill:#e1f5ee;stroke:#0f6e56}
  .c-amber rect{fill:#faeeda;stroke:#854f0b}
  .th{fill:#444441;font-size:14px;font-weight:500}
  .ts{fill:#5f5e5a;font-size:12px;font-weight:400}
  .c-amber .th{fill:#633806}
  .c-amber .ts{fill:#854f0b}
  text{font-family:"Anthropic Sans",-apple-system,BlinkMacSystemFont,"Segoe UI",sans-serif}
  line{fill:none;stroke:#73726c;stroke-width:1.5}
</style>
<title>T4 Pipeline + Barrier</title>
<desc>阶段1并行完成后，在全局结果上做聚合操作（去重/排序/过滤），再进入阶段2</desc>
<defs><marker id="a3" viewBox="0 0 10 10" refX="8" refY="5" markerWidth="6" markerHeight="6" orient="auto-start-reverse"><path d="M2 1L8 5L2 9" fill="none" stroke="context-stroke" stroke-width="1.5" stroke-linecap="round" stroke-linejoin="round"/></marker></defs>
<g class="c-gray"><rect x="20" y="93" width="80" height="44" rx="8" stroke-width="0.5"/><text class="th" x="60" y="115" text-anchor="middle" dominant-baseline="central">输入</text></g>
<line x1="100" y1="115" x2="128" y2="65" stroke-width="0.5" marker-end="url(#a3)"/>
<line x1="100" y1="115" x2="128" y2="115" stroke-width="0.5" marker-end="url(#a3)"/>
<line x1="100" y1="115" x2="128" y2="165" stroke-width="0.5" marker-end="url(#a3)"/>
<g class="c-purple"><rect x="130" y="43" width="100" height="44" rx="8" stroke-width="0.5"/><text class="th" x="180" y="60" text-anchor="middle" dominant-baseline="central">agent 1</text><text class="ts" x="180" y="77" text-anchor="middle" dominant-baseline="central">阶段 1</text></g>
<g class="c-purple"><rect x="130" y="93" width="100" height="44" rx="8" stroke-width="0.5"/><text class="th" x="180" y="110" text-anchor="middle" dominant-baseline="central">agent 2</text><text class="ts" x="180" y="127" text-anchor="middle" dominant-baseline="central">阶段 1</text></g>
<g class="c-purple"><rect x="130" y="143" width="100" height="44" rx="8" stroke-width="0.5"/><text class="th" x="180" y="160" text-anchor="middle" dominant-baseline="central">agent 3</text><text class="ts" x="180" y="177" text-anchor="middle" dominant-baseline="central">阶段 1</text></g>
<line x1="230" y1="65" x2="268" y2="108" stroke-width="0.5" marker-end="url(#a3)"/>
<line x1="230" y1="115" x2="268" y2="115" stroke-width="0.5" marker-end="url(#a3)"/>
<line x1="230" y1="165" x2="268" y2="122" stroke-width="0.5" marker-end="url(#a3)"/>
<g class="c-amber"><rect x="270" y="93" width="110" height="44" rx="8" stroke-width="0.5"/><text class="th" x="325" y="110" text-anchor="middle" dominant-baseline="central">全局操作</text><text class="ts" x="325" y="127" text-anchor="middle" dominant-baseline="central">去重 / 排序 / 过滤</text></g>
<text class="ts" x="325" y="80" text-anchor="middle">屏障 — 等全部完成</text>
<line x1="255" y1="84" x2="255" y2="200" stroke="#b8b7af" stroke-width="0.5" stroke-dasharray="3 2"/>
<line x1="380" y1="115" x2="418" y2="65" stroke-width="0.5" marker-end="url(#a3)"/>
<line x1="380" y1="115" x2="418" y2="115" stroke-width="0.5" marker-end="url(#a3)"/>
<line x1="380" y1="115" x2="418" y2="165" stroke-width="0.5" marker-end="url(#a3)"/>
<g class="c-teal"><rect x="420" y="43" width="100" height="44" rx="8" stroke-width="0.5"/><text class="th" x="470" y="60" text-anchor="middle" dominant-baseline="central">agent 1</text><text class="ts" x="470" y="77" text-anchor="middle" dominant-baseline="central">阶段 2</text></g>
<g class="c-teal"><rect x="420" y="93" width="100" height="44" rx="8" stroke-width="0.5"/><text class="th" x="470" y="110" text-anchor="middle" dominant-baseline="central">agent 2</text><text class="ts" x="470" y="127" text-anchor="middle" dominant-baseline="central">阶段 2</text></g>
<g class="c-teal"><rect x="420" y="143" width="100" height="44" rx="8" stroke-width="0.5"/><text class="th" x="470" y="160" text-anchor="middle" dominant-baseline="central">agent 3</text><text class="ts" x="470" y="177" text-anchor="middle" dominant-baseline="central">阶段 2</text></g>
<line x1="520" y1="65" x2="558" y2="108" stroke-width="0.5" marker-end="url(#a3)"/>
<line x1="520" y1="115" x2="558" y2="115" stroke-width="0.5" marker-end="url(#a3)"/>
<line x1="520" y1="165" x2="558" y2="122" stroke-width="0.5" marker-end="url(#a3)"/>
<g class="c-gray"><rect x="560" y="93" width="80" height="44" rx="8" stroke-width="0.5"/><text class="th" x="600" y="115" text-anchor="middle" dominant-baseline="central">输出</text></g>
<text class="ts" x="340" y="218" text-anchor="middle">适用：搜索去重后深挖、候选排序后处理、阶段间需要跨单元聚合的场景</text>
</svg>