<svg width="100%" viewBox="0 0 680 220" role="img" xmlns="http://www.w3.org/2000/svg">
<style>
  .c-gray rect{fill:#f1efe8;stroke:#5f5e5a}
  .c-purple rect{fill:#eeedfe;stroke:#534ab7}
  .c-coral rect{fill:#faece7;stroke:#993c1d}
  .c-teal rect{fill:#e1f5ee;stroke:#0f6e56}
  .th{fill:#444441;font-size:14px;font-weight:500}
  .ts{fill:#5f5e5a;font-size:12px;font-weight:400}
  .c-purple .th{fill:#3c3489}
  .c-coral .th{fill:#712b13}
  .c-teal .th{fill:#085041}
  text{font-family:"Anthropic Sans",-apple-system,BlinkMacSystemFont,"Segoe UI",sans-serif}
  line{fill:none;stroke:#73726c;stroke-width:1.5}
</style>
<title>T7 评判小组</title>
<desc>多视角生成方案，独立评审打分，综合选最优</desc>
<defs><marker id="a6" viewBox="0 0 10 10" refX="8" refY="5" markerWidth="6" markerHeight="6" orient="auto-start-reverse"><path d="M2 1L8 5L2 9" fill="none" stroke="context-stroke" stroke-width="1.5" stroke-linecap="round" stroke-linejoin="round"/></marker></defs>
<g class="c-gray"><rect x="20" y="88" width="80" height="44" rx="8" stroke-width="0.5"/><text class="th" x="60" y="110" text-anchor="middle" dominant-baseline="central">需求</text></g>
<line x1="100" y1="110" x2="128" y2="60" stroke-width="0.5" marker-end="url(#a6)"/>
<line x1="100" y1="110" x2="128" y2="110" stroke-width="0.5" marker-end="url(#a6)"/>
<line x1="100" y1="110" x2="128" y2="160" stroke-width="0.5" marker-end="url(#a6)"/>
<g class="c-purple"><rect x="130" y="38" width="110" height="44" rx="8" stroke-width="0.5"/><text class="th" x="185" y="55" text-anchor="middle" dominant-baseline="central">方案 A</text><text class="ts" x="185" y="72" text-anchor="middle" dominant-baseline="central">视角 1</text></g>
<g class="c-purple"><rect x="130" y="88" width="110" height="44" rx="8" stroke-width="0.5"/><text class="th" x="185" y="105" text-anchor="middle" dominant-baseline="central">方案 B</text><text class="ts" x="185" y="122" text-anchor="middle" dominant-baseline="central">视角 2</text></g>
<g class="c-purple"><rect x="130" y="138" width="110" height="44" rx="8" stroke-width="0.5"/><text class="th" x="185" y="155" text-anchor="middle" dominant-baseline="central">方案 C</text><text class="ts" x="185" y="172" text-anchor="middle" dominant-baseline="central">视角 3</text></g>
<text class="ts" x="185" y="26" text-anchor="middle">parallel() — 生成</text>
<line x1="240" y1="60" x2="278" y2="60" stroke-width="0.5" marker-end="url(#a6)"/>
<line x1="240" y1="110" x2="278" y2="110" stroke-width="0.5" marker-end="url(#a6)"/>
<line x1="240" y1="160" x2="278" y2="160" stroke-width="0.5" marker-end="url(#a6)"/>
<g class="c-coral"><rect x="280" y="38" width="110" height="44" rx="8" stroke-width="0.5"/><text class="th" x="335" y="55" text-anchor="middle" dominant-baseline="central">评审 A</text><text class="ts" x="335" y="72" text-anchor="middle" dominant-baseline="central">优缺点打分</text></g>
<g class="c-coral"><rect x="280" y="88" width="110" height="44" rx="8" stroke-width="0.5"/><text class="th" x="335" y="105" text-anchor="middle" dominant-baseline="central">评审 B</text><text class="ts" x="335" y="122" text-anchor="middle" dominant-baseline="central">优缺点打分</text></g>
<g class="c-coral"><rect x="280" y="138" width="110" height="44" rx="8" stroke-width="0.5"/><text class="th" x="335" y="155" text-anchor="middle" dominant-baseline="central">评审 C</text><text class="ts" x="335" y="172" text-anchor="middle" dominant-baseline="central">优缺点打分</text></g>
<text class="ts" x="335" y="26" text-anchor="middle">parallel() — 评审</text>
<line x1="390" y1="60" x2="428" y2="105" stroke-width="0.5" marker-end="url(#a6)"/>
<line x1="390" y1="110" x2="428" y2="110" stroke-width="0.5" marker-end="url(#a6)"/>
<line x1="390" y1="160" x2="428" y2="115" stroke-width="0.5" marker-end="url(#a6)"/>
<g class="c-teal"><rect x="430" y="88" width="110" height="44" rx="8" stroke-width="0.5"/><text class="th" x="485" y="105" text-anchor="middle" dominant-baseline="central">综合 agent</text><text class="ts" x="485" y="122" text-anchor="middle" dominant-baseline="central">选最优</text></g>
<line x1="540" y1="110" x2="598" y2="110" stroke-width="0.5" marker-end="url(#a6)"/>
<g class="c-gray"><rect x="600" y="88" width="60" height="44" rx="8" stroke-width="0.5"/><text class="th" x="630" y="110" text-anchor="middle" dominant-baseline="central">最优</text></g>
<text class="ts" x="340" y="206" text-anchor="middle">适用：技术方案选型、策略评估、创意内容多版本择优</text>
</svg>